<?xml version="1.0" encoding="utf-8"?>
<!-- Generator: Adobe Illustrator 15.0.0, SVG Export Plug-In . SVG Version: 6.00 Build 0)  -->
<!DOCTYPE svg PUBLIC "-//W3C//DTD SVG 1.1//EN" "http://www.w3.org/Graphics/SVG/1.1/DTD/svg11.dtd">
<svg version="1.1" xmlns="http://www.w3.org/2000/svg" xmlns:xlink="http://www.w3.org/1999/xlink" x="0px" y="0px" width="100px"
	 height="100px" viewBox="0 0 100 100" enable-background="new 0 0 100 100" xml:space="preserve">
<g id="图层_1">
	<g>
		<g id="头">
			<path stroke="#008888" d="M56.78,83.518c-0.438-1.26-0.775-2.562-0.87-3.906c-0.035-0.668-0.019-1.362,0.233-2.018
				c0.274-0.665,0.807-1.114,1.237-1.614c1.837-1.936,3.746-3.786,5.615-5.678c1.872-1.889,3.732-3.788,5.499-5.761
				c0.878-0.988,1.742-1.994,2.5-3.052c0.368-0.525,0.738-1.083,0.93-1.618c0.062-0.199,0.175-0.674,0.29-0.959l0.357-0.946
				c0.994-2.455,1.85-4.941,2.078-7.528c0.117-1.289,0.09-2.576-0.119-3.854c-0.206-1.252-0.583-2.512-1.05-3.722
				c-0.948-2.412-2.215-4.771-3.827-6.751c-0.203-0.241-0.416-0.473-0.631-0.666c-0.106-0.096-0.216-0.182-0.305-0.235l-0.059-0.033
				c-0.096-0.053-0.067-0.026-0.216-0.132c-0.1-0.077-0.203-0.188-0.271-0.374c-0.066-0.19-0.035-0.394,0.013-0.515
				c0.218-0.443,0.396-0.484,0.561-0.629c0.165-0.115,0.323-0.207,0.48-0.293c0.315-0.172,0.626-0.319,0.938-0.459
				c1.246-0.554,2.495-1.02,3.747-1.487c5.001-1.845,10.032-3.562,14.877-5.67c2.396-1.068,4.829-2.192,6.83-3.724
				c0.972-0.737,1.828-1.806,1.448-2.423c-0.009-0.03-0.066-0.122-0.053-0.102l-0.144-0.204c-0.072-0.067-0.115-0.128-0.227-0.217
				c-0.19-0.166-0.426-0.315-0.685-0.444c-0.516-0.261-1.106-0.454-1.715-0.604c-2.462-0.578-5.119-0.64-7.733-0.596
				c-2.625,0.056-5.257,0.277-7.879,0.583c-5.245,0.618-10.453,1.6-15.603,2.809c-10.321,2.344-20.399,5.731-29.948,10.317
				c-4.778,2.274-9.434,4.813-13.875,7.679c-4.419,2.878-8.7,6.054-12.273,9.886c-1.734,1.918-3.404,4.046-4.065,6.445
				c-0.159,0.594-0.219,1.197-0.167,1.776c0.069,0.579,0.234,1.213,0.449,1.79c0.437,1.172,1.137,2.244,1.994,3.185
				c1.729,1.887,4,3.269,6.359,4.387c2.373,1.119,4.88,1.965,7.415,2.707c5.077,1.494,10.313,2.445,15.548,3.389
				c1.309,0.241,2.62,0.479,3.925,0.775c0.652,0.155,1.304,0.31,1.944,0.573c0.16,0.07,0.319,0.144,0.474,0.261
				c0.073,0.051,0.162,0.145,0.208,0.221l0.138,0.21c0.187,0.297,0.334,0.598,0.472,0.908c0.537,1.242,0.839,2.557,1.044,3.876
				c0.172,1.319,0.345,2.665,0.079,3.998l-0.097-0.027c0.241-1.29,0.056-2.644-0.134-3.946c-0.22-1.306-0.539-2.606-1.081-3.814
				c-0.137-0.3-0.289-0.597-0.466-0.871c-0.16-0.311-0.408-0.479-0.727-0.6c-0.611-0.243-1.263-0.39-1.91-0.534
				c-1.299-0.278-2.611-0.497-3.922-0.721c-5.246-0.873-10.506-1.755-15.638-3.191c-2.562-0.721-5.095-1.571-7.514-2.694
				c-2.405-1.127-4.742-2.522-6.568-4.492c-0.904-0.982-1.658-2.118-2.133-3.374c-0.234-0.629-0.412-1.276-0.496-1.947
				c-0.065-0.672,0.005-1.353,0.174-2.002c0.714-2.611,2.429-4.774,4.187-6.749c3.623-3.923,7.923-7.14,12.363-10.064
				c4.46-2.91,9.132-5.486,13.927-7.797c9.579-4.659,19.718-8.123,30.088-10.53c5.187-1.2,10.433-2.156,15.725-2.755
				c2.646-0.295,5.304-0.505,7.968-0.549c2.658-0.028,5.348,0.038,7.956,0.661c0.647,0.165,1.289,0.374,1.892,0.682
				c0.587,0.299,1.187,0.74,1.477,1.371c0.318,0.65,0.098,1.422-0.29,1.964c-0.384,0.564-0.891,1.018-1.414,1.433
				c-2.143,1.618-4.594,2.721-7.023,3.794c-4.896,2.102-9.946,3.796-14.944,5.613c-1.248,0.459-2.497,0.918-3.711,1.452
				c-0.303,0.135-0.604,0.275-0.893,0.432c-0.275,0.157-0.606,0.329-0.74,0.569c-0.053,0.111,0.09,0.166,0.253,0.257
				c0.147,0.091,0.279,0.199,0.405,0.313c0.25,0.228,0.476,0.477,0.689,0.734c1.678,2.084,2.936,4.47,3.9,6.953
				c0.473,1.247,0.854,2.532,1.064,3.854c0.208,1.319,0.231,2.666,0.103,3.994c-0.251,2.667-1.139,5.22-2.159,7.67
				c-0.252,0.621-0.494,1.223-0.664,1.877c-0.243,0.637-0.631,1.188-1.019,1.729c-0.793,1.074-1.676,2.073-2.573,3.056
				c-1.803,1.96-3.691,3.836-5.589,5.7c-1.896,1.867-3.831,3.694-5.687,5.598c-0.438,0.491-0.967,0.937-1.22,1.54
				c-0.244,0.607-0.274,1.285-0.247,1.941c0.075,1.321,0.393,2.625,0.811,3.88L56.78,83.518z"/>
		</g>
		<g id="嘴唇" stroke="#008888">
			<path d="M32.413,56.005c-1.641,1.673-3.505,3.115-5.479,4.392c-1.987,1.255-4.107,2.315-6.336,3.111
				c-2.221,0.8-4.56,1.39-6.946,1.463c-2.377,0.055-4.773-0.232-6.992-1.036l0.022-0.098c2.33,0.24,4.629,0.365,6.911,0.136
				c2.274-0.198,4.547-0.546,6.751-1.224c2.199-0.681,4.322-1.629,6.332-2.78c2.012-1.145,3.944-2.469,5.665-4.034L32.413,56.005z"
				/>
		</g>
		<g id="牙齿" stroke="#008888">
			<polygon points="24.838,61.213 27.95,65.022 27.712,65.102 28.212,59.288 27.982,65.119 27.97,65.449 27.744,65.198 
				24.458,61.539 			"/>
		</g>
		<g id="鼻孔">
			<path stroke="#008888" d="M19.657,45.91c0.372-0.854,0.772-1.696,1.219-2.522c0.232-0.408,0.474-0.813,0.751-1.206
				c0.301-0.387,0.524-0.791,1.118-1.11c0.077-0.038,0.184-0.065,0.295-0.08l0.196-0.009c0.12-0.001,0.292,0.004,0.412,0.021
				c0.263,0.022,0.512,0.077,0.76,0.139c0.49,0.14,0.953,0.353,1.359,0.646c0.81,0.583,1.457,1.392,1.755,2.32l-0.083,0.056
				c-0.747-0.602-1.441-1.127-2.205-1.529c-0.38-0.196-0.752-0.401-1.142-0.555c-0.354-0.164-0.867-0.286-1.056-0.264
				c-0.253,0.081-0.619,0.445-0.899,0.766c-0.296,0.336-0.573,0.702-0.841,1.073c-0.549,0.738-1.064,1.51-1.551,2.299L19.657,45.91z
				"/>
		</g>
		<g id="眼睛">
			<path stroke="#008888" d="M42.35,49.769c-1.176-0.642-1.987-1.827-2.455-3.101c-0.495-1.28-0.671-2.673-0.65-4.048
				c0.244-2.727,1.045-5.446,2.755-7.692c0.434-0.549,0.951-1.069,1.537-1.474c0.549-0.396,1.163-0.766,1.777-1.068
				c1.242-0.612,2.587-1.029,3.973-1.181c1.383-0.153,2.816-0.052,4.16,0.418c1.338,0.455,2.577,1.343,3.402,2.494
				c1.646,2.211,2.71,4.845,2.95,7.61c0.317,2.798-0.819,5.614-2.549,7.745c-0.878,1.077-1.985,2.008-3.283,2.594
				c-1.294,0.588-2.75,0.809-4.145,0.677c-1.407-0.224-2.636-0.716-3.904-1.17c-0.631-0.225-1.258-0.472-1.86-0.768
				C43.444,50.528,42.931,50.091,42.35,49.769z M42.35,49.769c0.586,0.313,1.116,0.735,1.749,0.947
				c0.624,0.224,1.273,0.364,1.922,0.5c0.652,0.123,1.311,0.223,1.966,0.325c0.668,0.118,1.283,0.199,1.921,0.205
				c1.252,0.099,2.518-0.068,3.648-0.592c1.134-0.512,2.122-1.334,2.922-2.316c1.593-1.983,2.611-4.473,2.326-7.031
				c-0.217-2.543-1.221-5.037-2.751-7.088c-1.452-2.059-4.155-2.831-6.654-2.521c-1.261,0.138-2.498,0.521-3.641,1.084
				c-0.579,0.287-1.108,0.604-1.64,0.986c-0.51,0.353-0.941,0.787-1.333,1.28c-1.532,2.003-2.331,4.6-2.536,7.148
				c-0.174,1.274-0.216,2.582,0.014,3.867C40.505,47.822,41.144,49.128,42.35,49.769z"/>
		</g>
		<path id="瞳孔" fill="#008888" d="M40.063,46.553c0.168-2.252,1.793-5.301,4.917-5.353c2.922-0.05,4.545-0.653,5.333,5.258
			c0.421,3.149-1.476,5.305-2.93,5.307C45.929,51.768,39.895,48.805,40.063,46.553z"/>
		<path id="眼睛高光2" fill="#cccccc" stroke="#008888" stroke-width="0.25" stroke-miterlimit="10" d="M42.715,44.26
			c1.358-1.152,2.119-1.061,2.667-0.368c0.548,0.694,0.658,3.224-0.365,3.672c-1.023,0.449-2.046,0.898-2.521-0.285
			C42.021,46.096,41.969,44.892,42.715,44.26z"/>
		<path id="眼睛高光" fill="#cccccc" stroke="#008888" stroke-width="0.25" stroke-miterlimit="10" d="M46.952,48.259
			c0.432-0.645,1.461-1.103,1.681-0.572c0.219,0.531,0.84,0.816,0.292,1.47c-0.548,0.652-0.986,1.346-1.534,1.142
			C46.843,50.095,46.294,49.237,46.952,48.259z"/>
	</g>
</g>
<g id="图层_2">
</g>
</svg>
